<svg width="35" height="26" viewBox="0 0 35 26" fill="none" xmlns="http://www.w3.org/2000/svg">
<path d="M1.40923 16.3629C0.771423 13.1982 1.16579 9.9021 1.63319 6.67414C1.63806 6.71309 1.64293 6.74717 1.65266 6.78612C1.76951 7.43853 1.91557 8.09094 2.12006 8.719C2.59719 10.1942 3.64397 11.3676 4.08216 12.872C4.2623 13.4904 5.05103 13.948 5.57686 13.3589C7.16406 11.5672 8.36177 9.45905 9.74936 7.50669C10.3872 6.60597 11.0931 5.75395 11.7894 4.89705C11.5605 8.01791 11.4388 11.1874 12.2762 14.1184C12.6219 15.3161 13.8634 15.4865 14.6376 14.5371C16.7262 11.9762 19.0632 9.6684 21.6729 7.75012C20.9669 10.8905 19.6475 14.0113 20.7186 17.137C20.8987 17.658 21.6144 17.9939 22.1159 17.8138C24.6428 16.9277 27.0674 15.7008 29.5505 14.6832C28.9273 15.5352 28.343 16.4165 27.7831 17.3074C27.0577 18.4711 26.4004 19.6785 25.7675 20.9006C25.3682 21.6698 24.9787 22.4099 24.6915 23.1937C23.6009 22.7409 22.4908 22.4245 21.3272 22.035C19.1265 21.2949 17.0038 20.5841 14.7301 20.0826C11.1564 19.2939 6.71614 17.6142 3.03051 19.065C2.17362 19.401 1.34107 20.0875 1.54069 21.1489C1.82307 22.629 4.07242 22.9503 5.15328 23.257C9.61303 24.5229 14.1215 24.7128 18.7516 24.8978C19.1606 24.9124 19.1996 24.26 18.7906 24.2259C15.1196 23.9484 11.4193 23.7585 7.83108 22.9454C6.24874 22.5851 4.42297 22.1226 3.20092 20.9687C3.1571 20.9298 3.13276 20.8957 3.10841 20.8713C3.18631 20.8129 3.26908 20.7691 3.35185 20.7253C3.86307 20.4429 4.51548 20.3699 5.07538 20.3163C8.53704 19.9901 12.1058 21.2414 15.4214 21.9814C17.1644 22.3709 18.8831 22.8042 20.5385 23.4761C21.2493 23.7682 21.9796 24.0117 22.7002 24.2843C23.2844 24.5034 24.1413 24.742 24.4091 25.3798C24.672 26.0127 25.6409 26.2464 26.1229 25.6865C26.9067 24.7809 27.3157 23.8364 27.8367 22.7604C28.4307 21.5238 29.0782 20.3163 29.7647 19.1283C31.089 16.84 32.608 14.654 34.5507 12.9012C35.5682 11.9859 34.7064 10.3159 33.4698 10.5983C29.755 11.4504 26.3712 13.354 22.817 14.7367C22.7586 13.3784 23.2309 11.8642 23.5473 10.6373C24.0147 8.80664 24.5892 6.94678 24.6477 5.04798C24.6817 4.05476 23.6739 3.25629 22.7829 3.80159C19.6231 5.71987 16.8041 8.11041 14.3065 10.8807C13.9316 7.72091 14.3552 4.39557 14.2773 1.22603C14.2529 0.16465 12.8556 -0.555922 12.2373 0.563885C11.1467 2.54059 9.56921 4.13266 8.35203 6.01199C7.30525 7.63328 6.27309 9.28864 5.15328 10.8612C4.52521 9.79499 3.75109 8.81638 3.36646 7.61867C2.97696 6.40636 2.67996 4.83376 1.68187 4.02068C1.31185 3.72369 0.834715 4.09858 0.781159 4.51729C0.255337 8.51452 -0.450627 12.6529 0.386794 16.6015C0.537724 17.2928 1.54555 17.0445 1.40923 16.3629ZM3.07433 20.8032C3.06947 20.7934 3.06947 20.7934 3.07433 20.8032V20.8032Z" fill="#FFD62C"/>
</svg>
