<svg width="275" height="26" viewBox="0 0 275 26" fill="none" xmlns="http://www.w3.org/2000/svg">
<path d="M1.40923 16.3629C0.771423 13.1982 1.16579 9.9021 1.63319 6.67414C1.63806 6.71309 1.64293 6.74717 1.65266 6.78612C1.76951 7.43853 1.91557 8.09094 2.12006 8.719C2.59719 10.1942 3.64397 11.3676 4.08216 12.872C4.2623 13.4904 5.05103 13.948 5.57686 13.3589C7.16406 11.5672 8.36177 9.45905 9.74936 7.50669C10.3872 6.60597 11.0931 5.75395 11.7894 4.89705C11.5605 8.01791 11.4388 11.1874 12.2762 14.1184C12.6219 15.3161 13.8634 15.4865 14.6376 14.5371C16.7262 11.9762 19.0632 9.6684 21.6729 7.75012C20.9669 10.8905 19.6475 14.0113 20.7186 17.137C20.8987 17.658 21.6144 17.9939 22.1159 17.8138C24.6428 16.9277 27.0674 15.7008 29.5505 14.6832C28.9273 15.5352 28.343 16.4165 27.7831 17.3074C27.0577 18.4711 26.4004 19.6785 25.7675 20.9006C25.3682 21.6698 24.9787 22.4099 24.6915 23.1937C23.6009 22.7409 22.4908 22.4245 21.3272 22.035C19.1265 21.2949 17.0038 20.5841 14.7301 20.0826C11.1564 19.2939 6.71614 17.6142 3.03051 19.065C2.17362 19.401 1.34107 20.0875 1.54069 21.1489C1.82307 22.629 4.07242 22.9503 5.15328 23.257C9.61303 24.5229 14.1215 24.7128 18.7516 24.8978C19.1606 24.9124 19.1996 24.26 18.7906 24.2259C15.1196 23.9484 11.4193 23.7585 7.83108 22.9454C6.24874 22.5851 4.42297 22.1226 3.20092 20.9687C3.1571 20.9298 3.13276 20.8957 3.10841 20.8713C3.18631 20.8129 3.26908 20.7691 3.35185 20.7253C3.86307 20.4429 4.51548 20.3699 5.07538 20.3163C8.53704 19.9901 12.1058 21.2414 15.4214 21.9814C17.1644 22.3709 18.8831 22.8042 20.5385 23.4761C21.2493 23.7682 21.9796 24.0117 22.7002 24.2843C23.2844 24.5034 24.1413 24.742 24.4091 25.3798C24.672 26.0127 25.6409 26.2464 26.1229 25.6865C26.9067 24.7809 27.3157 23.8364 27.8367 22.7604C28.4307 21.5238 29.0782 20.3163 29.7647 19.1283C31.089 16.84 32.608 14.654 34.5507 12.9012C35.5682 11.9859 34.7064 10.3159 33.4698 10.5983C29.755 11.4504 26.3712 13.354 22.817 14.7367C22.7586 13.3784 23.2309 11.8642 23.5473 10.6373C24.0147 8.80664 24.5892 6.94678 24.6477 5.04798C24.6817 4.05476 23.6739 3.25629 22.7829 3.80159C19.6231 5.71987 16.8041 8.11041 14.3065 10.8807C13.9316 7.72091 14.3552 4.39557 14.2773 1.22603C14.2529 0.16465 12.8556 -0.555922 12.2373 0.563885C11.1467 2.54059 9.56921 4.13266 8.35203 6.01199C7.30525 7.63328 6.27309 9.28864 5.15328 10.8612C4.52521 9.79499 3.75109 8.81638 3.36646 7.61867C2.97696 6.40636 2.67996 4.83376 1.68187 4.02068C1.31185 3.72369 0.834715 4.09858 0.781159 4.51729C0.255337 8.51452 -0.450627 12.6529 0.386794 16.6015C0.537724 17.2928 1.54555 17.0445 1.40923 16.3629ZM3.07433 20.8032C3.06947 20.7934 3.06947 20.7934 3.07433 20.8032V20.8032Z" fill="#FFD62C"/>
<path d="M45.5566 20V18.3872C45.5566 18.0416 45.5758 17.6704 45.6142 17.2736C45.6526 16.864 45.7486 16.448 45.9022 16.0256C46.0558 15.6032 46.2798 15.1872 46.5742 14.7776C46.8686 14.3552 47.2782 13.9584 47.803 13.5872C48.3278 13.2032 48.9742 12.8512 49.7422 12.5312C50.523 12.2112 51.4638 11.936 52.5646 11.7056L55.9054 11.0144C56.3918 10.9248 56.7758 10.8352 57.0574 10.7456C57.339 10.6432 57.5502 10.5472 57.691 10.4576C57.8318 10.3552 57.9214 10.2528 57.9598 10.1504C57.9982 10.048 58.0174 9.9392 58.0174 9.824C58.0174 9.6832 57.979 9.5488 57.9022 9.4208C57.8254 9.2928 57.659 9.1776 57.403 9.0752C57.147 8.9728 56.7822 8.896 56.3086 8.8448C55.835 8.7808 55.2078 8.7488 54.427 8.7488C53.531 8.7488 52.8206 8.8192 52.2958 8.96C51.7838 9.1008 51.3934 9.28 51.1246 9.4976C50.8558 9.7024 50.683 9.92 50.6062 10.1504C50.5294 10.3808 50.4846 10.5856 50.4718 10.7648H45.8062V10.6112C45.8062 10.3424 45.8318 10.0288 45.883 9.6704C45.947 9.2992 46.0686 8.928 46.2478 8.5568C46.4398 8.1728 46.715 7.7952 47.0734 7.424C47.4318 7.0528 47.9118 6.7264 48.5134 6.4448C49.115 6.1504 49.851 5.9136 50.7214 5.7344C51.6046 5.5552 52.6606 5.4656 53.8894 5.4656H54.6574C56.3342 5.4656 57.6974 5.5872 58.747 5.8304C59.8094 6.0736 60.635 6.4 61.2238 6.8096C61.8126 7.2192 62.2094 7.6928 62.4142 8.2304C62.6318 8.7552 62.7406 9.2992 62.7406 9.8624V9.9008C62.7406 10.4384 62.6702 10.9312 62.5294 11.3792C62.4014 11.8144 62.139 12.2112 61.7422 12.5696C61.3454 12.9152 60.7822 13.2224 60.0526 13.4912C59.3358 13.76 58.395 13.9904 57.2302 14.1824L53.3134 14.8352C52.4686 14.9888 51.7966 15.1488 51.2974 15.3152C50.7982 15.4816 50.4206 15.648 50.1646 15.8144C49.9086 15.968 49.7422 16.1216 49.6654 16.2752C49.5886 16.416 49.5502 16.5312 49.5502 16.6208H58.5934V14.7776H62.9902V20H45.5566Z" fill="#FFD62C"/>
<path d="M64.1941 20V18.3872C64.1941 18.0416 64.2133 17.6704 64.2517 17.2736C64.2901 16.864 64.3861 16.448 64.5397 16.0256C64.6933 15.6032 64.9173 15.1872 65.2117 14.7776C65.5061 14.3552 65.9157 13.9584 66.4405 13.5872C66.9653 13.2032 67.6117 12.8512 68.3797 12.5312C69.1605 12.2112 70.1013 11.936 71.2021 11.7056L74.5429 11.0144C75.0293 10.9248 75.4133 10.8352 75.6949 10.7456C75.9765 10.6432 76.1877 10.5472 76.3285 10.4576C76.4693 10.3552 76.5589 10.2528 76.5973 10.1504C76.6357 10.048 76.6549 9.9392 76.6549 9.824C76.6549 9.6832 76.6165 9.5488 76.5397 9.4208C76.4629 9.2928 76.2965 9.1776 76.0405 9.0752C75.7845 8.9728 75.4197 8.896 74.9461 8.8448C74.4725 8.7808 73.8453 8.7488 73.0645 8.7488C72.1685 8.7488 71.4581 8.8192 70.9333 8.96C70.4213 9.1008 70.0309 9.28 69.7621 9.4976C69.4933 9.7024 69.3205 9.92 69.2437 10.1504C69.1669 10.3808 69.1221 10.5856 69.1093 10.7648H64.4437V10.6112C64.4437 10.3424 64.4693 10.0288 64.5205 9.6704C64.5845 9.2992 64.7061 8.928 64.8853 8.5568C65.0773 8.1728 65.3525 7.7952 65.7109 7.424C66.0693 7.0528 66.5493 6.7264 67.1509 6.4448C67.7525 6.1504 68.4885 5.9136 69.3589 5.7344C70.2421 5.5552 71.2981 5.4656 72.5269 5.4656H73.2949C74.9717 5.4656 76.3349 5.5872 77.3845 5.8304C78.4469 6.0736 79.2725 6.4 79.8613 6.8096C80.4501 7.2192 80.8469 7.6928 81.0517 8.2304C81.2693 8.7552 81.3781 9.2992 81.3781 9.8624V9.9008C81.3781 10.4384 81.3077 10.9312 81.1669 11.3792C81.0389 11.8144 80.7765 12.2112 80.3797 12.5696C79.9829 12.9152 79.4197 13.2224 78.6901 13.4912C77.9733 13.76 77.0325 13.9904 75.8677 14.1824L71.9509 14.8352C71.1061 14.9888 70.4341 15.1488 69.9349 15.3152C69.4357 15.4816 69.0581 15.648 68.8021 15.8144C68.5461 15.968 68.3797 16.1216 68.3029 16.2752C68.2261 16.416 68.1877 16.5312 68.1877 16.6208H77.2309V14.7776H81.6277V20H64.1941Z" fill="#FFD62C"/>
<path d="M83.3692 5.7152H95.5996C96.6236 5.7152 97.4684 5.8048 98.134 5.984C98.8124 6.1632 99.35 6.4064 99.7468 6.7136C100.144 7.0208 100.419 7.3728 100.572 7.7696C100.739 8.1536 100.822 8.5568 100.822 8.9792V9.248C100.822 9.7088 100.732 10.1056 100.553 10.4384C100.387 10.7712 100.182 11.0464 99.9388 11.264C99.7084 11.4816 99.4588 11.6544 99.19 11.7824C98.934 11.8976 98.7228 11.9808 98.5564 12.032C98.7996 12.096 99.094 12.2048 99.4396 12.3584C99.798 12.4992 100.137 12.7104 100.457 12.992C100.777 13.2608 101.052 13.6128 101.283 14.048C101.513 14.4704 101.628 14.9952 101.628 15.6224V15.8912C101.628 16.4544 101.539 16.9856 101.36 17.4848C101.18 17.984 100.86 18.4192 100.4 18.7904C99.9516 19.1616 99.3436 19.456 98.5756 19.6736C97.8204 19.8912 96.8668 20 95.7148 20H83.3692V5.7152ZM87.8428 8.7296V11.0528H94.8316C95.1388 11.0528 95.3948 11.0208 95.5996 10.9568C95.8044 10.8928 95.9644 10.8096 96.0796 10.7072C96.1948 10.592 96.2716 10.464 96.31 10.3232C96.3612 10.1824 96.3868 10.0416 96.3868 9.9008V9.8624C96.3868 9.7088 96.3612 9.568 96.31 9.44C96.2716 9.2992 96.1948 9.1776 96.0796 9.0752C95.9644 8.9728 95.8044 8.8896 95.5996 8.8256C95.3948 8.7616 95.1388 8.7296 94.8316 8.7296H87.8428ZM87.8428 14.0864V16.8896H95.2156C95.5868 16.8896 95.8876 16.8448 96.118 16.7552C96.3484 16.6656 96.5276 16.5504 96.6556 16.4096C96.7836 16.2688 96.8668 16.1152 96.9052 15.9488C96.9564 15.7824 96.982 15.6288 96.982 15.488V15.4112C96.982 15.2576 96.9564 15.104 96.9052 14.9504C96.8668 14.784 96.7836 14.6432 96.6556 14.528C96.5276 14.4 96.3484 14.2976 96.118 14.2208C95.8876 14.1312 95.5868 14.0864 95.2156 14.0864H87.8428Z" fill="#FFD62C"/>
<path d="M118.11 5.7152V8.96H107.473V11.072H117.86V14.336H107.473V16.6784H118.302V20H103.057V5.7152H118.11Z" fill="#FFD62C"/>
<path d="M127.779 20.2496C126.538 20.2496 125.462 20.1664 124.554 20C123.658 19.8336 122.902 19.616 122.288 19.3472C121.674 19.0656 121.174 18.752 120.79 18.4064C120.419 18.048 120.131 17.6832 119.926 17.312C119.722 16.928 119.587 16.5504 119.523 16.1792C119.459 15.808 119.427 15.4624 119.427 15.1424V14.9312H124.093C124.106 15.1488 124.157 15.392 124.246 15.6608C124.349 15.9168 124.547 16.16 124.842 16.3904C125.149 16.6208 125.578 16.8128 126.128 16.9664C126.678 17.12 127.414 17.1968 128.336 17.1968H128.605C129.539 17.1968 130.282 17.1584 130.832 17.0816C131.395 16.992 131.818 16.8768 132.099 16.736C132.394 16.5824 132.579 16.416 132.656 16.2368C132.746 16.0576 132.79 15.872 132.79 15.68C132.79 15.4752 132.746 15.2896 132.656 15.1232C132.579 14.9568 132.413 14.8096 132.157 14.6816C131.901 14.5536 131.523 14.4576 131.024 14.3936C130.525 14.3168 129.866 14.2656 129.046 14.24L126.589 14.1824C125.258 14.144 124.144 14.0096 123.248 13.7792C122.352 13.5488 121.635 13.248 121.098 12.8768C120.56 12.4928 120.176 12.0576 119.946 11.5712C119.728 11.0848 119.619 10.56 119.619 9.9968V9.824C119.619 9.2864 119.715 8.7616 119.907 8.2496C120.112 7.7248 120.496 7.2576 121.059 6.848C121.635 6.4384 122.429 6.1056 123.44 5.8496C124.451 5.5936 125.77 5.4656 127.395 5.4656H128.72C130.41 5.4656 131.792 5.6 132.867 5.8688C133.942 6.1376 134.787 6.4896 135.402 6.9248C136.016 7.3472 136.438 7.8272 136.669 8.3648C136.899 8.9024 137.014 9.44 137.014 9.9776V10.1696H132.368C132.342 10.0288 132.285 9.8624 132.195 9.6704C132.118 9.4784 131.939 9.2928 131.658 9.1136C131.389 8.9344 130.986 8.7808 130.448 8.6528C129.91 8.5248 129.174 8.4608 128.24 8.4608H127.933C127.062 8.4608 126.378 8.4992 125.878 8.576C125.392 8.64 125.027 8.7296 124.784 8.8448C124.541 8.96 124.387 9.0944 124.323 9.248C124.259 9.3888 124.227 9.536 124.227 9.6896C124.227 9.8432 124.259 9.9904 124.323 10.1312C124.4 10.272 124.554 10.4 124.784 10.5152C125.014 10.6304 125.347 10.7264 125.782 10.8032C126.218 10.8672 126.8 10.9056 127.53 10.9184L129.93 10.9568C131.274 10.9824 132.419 11.0848 133.366 11.264C134.326 11.4432 135.107 11.7056 135.709 12.0512C136.323 12.3968 136.771 12.832 137.053 13.3568C137.334 13.8816 137.475 14.496 137.475 15.2V15.4688C137.475 16.0576 137.373 16.64 137.168 17.216C136.976 17.7792 136.579 18.2912 135.978 18.752C135.389 19.2 134.544 19.5648 133.443 19.8464C132.342 20.1152 130.896 20.2496 129.104 20.2496H127.779Z" fill="#FFD62C"/>
<path d="M144.156 9.0944H138.012V5.7152H154.832V9.0944H148.668V20H144.156V9.0944Z" fill="#FFD62C"/>
<path d="M162.398 8.8064L159.748 14.1632H165.162L162.398 8.8064ZM166.814 17.3888H158.154L156.868 20H152.318L159.537 5.7152H165.335L172.977 20H168.158L166.814 17.3888Z" fill="white"/>
<path d="M176.251 20L170.376 5.7152H175.253L178.939 15.5456L182.126 5.7152H186.888L190.152 15.2576L193.761 5.7152H198.158L192.379 20H187.867L184.43 10.4384L181.185 20H176.251Z" fill="white"/>
<path d="M205.635 8.8064L202.986 14.1632H208.4L205.635 8.8064ZM210.051 17.3888H201.392L200.106 20H195.555L202.774 5.7152H208.573L216.214 20H211.395L210.051 17.3888Z" fill="white"/>
<path d="M221.474 11.7632H228.252C228.892 11.7632 229.352 11.6288 229.634 11.36C229.916 11.0912 230.056 10.7584 230.056 10.3616V10.3424C230.056 9.9712 229.916 9.6512 229.634 9.3824C229.365 9.1008 228.904 8.96 228.252 8.96H221.474V11.7632ZM221.474 20H217V5.7152H228.52C229.711 5.7152 230.703 5.8112 231.496 6.0032C232.29 6.1952 232.924 6.464 233.397 6.8096C233.884 7.1424 234.223 7.5328 234.415 7.9808C234.62 8.4288 234.722 8.9088 234.722 9.4208V9.6512C234.722 10.1632 234.626 10.5984 234.434 10.9568C234.255 11.3152 234.024 11.6224 233.743 11.8784C233.474 12.1216 233.186 12.3136 232.879 12.4544C232.572 12.5952 232.303 12.704 232.072 12.7808C232.431 12.8832 232.777 13.024 233.109 13.2032C233.442 13.3824 233.73 13.6128 233.973 13.8944C234.216 14.1632 234.408 14.4768 234.549 14.8352C234.703 15.1936 234.78 15.6032 234.78 16.064V18.1568C234.78 18.7328 234.805 19.1424 234.856 19.3856C234.92 19.616 234.984 19.7888 235.048 19.904V20H230.498C230.434 19.9104 230.383 19.8016 230.344 19.6736C230.306 19.5456 230.287 19.3536 230.287 19.0976V17.4464C230.287 16.576 230.063 15.9424 229.615 15.5456C229.18 15.136 228.412 14.9312 227.311 14.9312H221.474V20Z" fill="white"/>
<path d="M236.538 5.7152H246.004C247.386 5.7152 248.589 5.8112 249.613 6.0032C250.65 6.1824 251.54 6.432 252.282 6.752C253.037 7.072 253.658 7.4496 254.144 7.8848C254.631 8.32 255.015 8.7936 255.296 9.3056C255.591 9.8048 255.796 10.3232 255.911 10.8608C256.026 11.3984 256.084 11.936 256.084 12.4736V13.0496C256.084 13.5616 256.026 14.0928 255.911 14.6432C255.808 15.1808 255.616 15.7056 255.335 16.2176C255.053 16.7296 254.669 17.216 254.183 17.6768C253.696 18.1376 253.082 18.5408 252.34 18.8864C251.597 19.232 250.708 19.5072 249.671 19.712C248.634 19.904 247.418 20 246.023 20H236.538V5.7152ZM241.012 16.5632H245.658C246.925 16.5632 247.936 16.4416 248.692 16.1984C249.447 15.9424 250.023 15.6352 250.42 15.2768C250.829 14.9056 251.092 14.5088 251.207 14.0864C251.335 13.6512 251.399 13.248 251.399 12.8768V12.7616C251.399 12.4032 251.341 12.0128 251.226 11.5904C251.111 11.1552 250.855 10.752 250.458 10.3808C250.061 10.0096 249.479 9.7024 248.711 9.4592C247.956 9.216 246.938 9.0944 245.658 9.0944H241.012V16.5632Z" fill="white"/>
<path d="M265.235 20.2496C263.994 20.2496 262.919 20.1664 262.01 20C261.114 19.8336 260.359 19.616 259.744 19.3472C259.13 19.0656 258.631 18.752 258.247 18.4064C257.875 18.048 257.587 17.6832 257.383 17.312C257.178 16.928 257.043 16.5504 256.979 16.1792C256.915 15.808 256.883 15.4624 256.883 15.1424V14.9312H261.549C261.562 15.1488 261.613 15.392 261.703 15.6608C261.805 15.9168 262.003 16.16 262.298 16.3904C262.605 16.6208 263.034 16.8128 263.584 16.9664C264.135 17.12 264.871 17.1968 265.792 17.1968H266.061C266.995 17.1968 267.738 17.1584 268.288 17.0816C268.851 16.992 269.274 16.8768 269.555 16.736C269.85 16.5824 270.035 16.416 270.112 16.2368C270.202 16.0576 270.247 15.872 270.247 15.68C270.247 15.4752 270.202 15.2896 270.112 15.1232C270.035 14.9568 269.869 14.8096 269.613 14.6816C269.357 14.5536 268.979 14.4576 268.48 14.3936C267.981 14.3168 267.322 14.2656 266.503 14.24L264.045 14.1824C262.714 14.144 261.6 14.0096 260.704 13.7792C259.808 13.5488 259.091 13.248 258.554 12.8768C258.016 12.4928 257.632 12.0576 257.402 11.5712C257.184 11.0848 257.075 10.56 257.075 9.9968V9.824C257.075 9.2864 257.171 8.7616 257.363 8.2496C257.568 7.7248 257.952 7.2576 258.515 6.848C259.091 6.4384 259.885 6.1056 260.896 5.8496C261.907 5.5936 263.226 5.4656 264.851 5.4656H266.176C267.866 5.4656 269.248 5.6 270.323 5.8688C271.399 6.1376 272.243 6.4896 272.858 6.9248C273.472 7.3472 273.895 7.8272 274.125 8.3648C274.355 8.9024 274.471 9.44 274.471 9.9776V10.1696H269.824C269.799 10.0288 269.741 9.8624 269.651 9.6704C269.575 9.4784 269.395 9.2928 269.114 9.1136C268.845 8.9344 268.442 8.7808 267.904 8.6528C267.367 8.5248 266.631 8.4608 265.696 8.4608H265.389C264.519 8.4608 263.834 8.4992 263.335 8.576C262.848 8.64 262.483 8.7296 262.24 8.8448C261.997 8.96 261.843 9.0944 261.779 9.248C261.715 9.3888 261.683 9.536 261.683 9.6896C261.683 9.8432 261.715 9.9904 261.779 10.1312C261.856 10.272 262.01 10.4 262.24 10.5152C262.471 10.6304 262.803 10.7264 263.239 10.8032C263.674 10.8672 264.256 10.9056 264.986 10.9184L267.386 10.9568C268.73 10.9824 269.875 11.0848 270.823 11.264C271.783 11.4432 272.563 11.7056 273.165 12.0512C273.779 12.3968 274.227 12.832 274.509 13.3568C274.791 13.8816 274.931 14.496 274.931 15.2V15.4688C274.931 16.0576 274.829 16.64 274.624 17.216C274.432 17.7792 274.035 18.2912 273.434 18.752C272.845 19.2 272 19.5648 270.899 19.8464C269.799 20.1152 268.352 20.2496 266.56 20.2496H265.235Z" fill="white"/>
</svg>
