<svg width="100" height="71" viewBox="0 0 100 71" fill="none" xmlns="http://www.w3.org/2000/svg">
<path d="M97.8235 11.3824C96.6765 7.07353 94.1618 3.42647 89.8529 2.27941C82.0441 0.191176 50 0 50 0C50 0 17.9559 0.191176 10.1471 2.27941C5.83824 3.42647 3.33824 7.07353 2.17647 11.3824C0.0882354 19.1912 0 35.2941 0 35.2941C0 35.2941 0.0882354 51.3971 2.17647 59.2059C3.32353 63.5147 5.83824 67.1618 10.1471 68.3088C17.9559 70.3971 50 70.5882 50 70.5882C50 70.5882 82.0441 70.3971 89.8529 68.3088C94.1618 67.1618 96.6765 63.5147 97.8235 59.2059C99.9118 51.3971 100 35.2941 100 35.2941C100 35.2941 99.9118 19.1912 97.8235 11.3824Z" fill="#FF0033"/>
<path d="M66.1757 35.2943L39.7051 20.5884V50.0001" fill="white"/>
</svg>
